<?xml version="1.0" encoding="UTF-8" standalone="no"?>
<svg
   id="Layer_1"
   data-name="Layer 1"
   viewBox="0 0 122.88 88.86"
   version="1.1"
   sodipodi:docname="email.svg"
   inkscape:version="1.4 (e7c3feb100, 2024-10-09)"
   xmlns:inkscape="http://www.inkscape.org/namespaces/inkscape"
   xmlns:sodipodi="http://sodipodi.sourceforge.net/DTD/sodipodi-0.dtd"
   xmlns="http://www.w3.org/2000/svg"
   xmlns:svg="http://www.w3.org/2000/svg"
   xmlns:rdf="http://www.w3.org/1999/02/22-rdf-syntax-ns#"
   xmlns:cc="http://creativecommons.org/ns#"
   xmlns:dc="http://purl.org/dc/elements/1.1/">
  <defs
     id="defs1" />
  <sodipodi:namedview
     id="namedview1"
     pagecolor="#ffffff"
     bordercolor="#666666"
     borderopacity="1.0"
     inkscape:showpageshadow="2"
     inkscape:pageopacity="0.0"
     inkscape:pagecheckerboard="true"
     inkscape:deskcolor="#d1d1d1"
     inkscape:zoom="13.53815"
     inkscape:cx="61.455961"
     inkscape:cy="44.43"
     inkscape:window-width="3440"
     inkscape:window-height="1384"
     inkscape:window-x="0"
     inkscape:window-y="0"
     inkscape:window-maximized="1"
     inkscape:current-layer="Layer_1" />
  <title
     id="title1">email</title>
  <path
     d="M7.05,0H115.83a7.07,7.07,0,0,1,7,7.05V81.81a7,7,0,0,1-1.22,4,2.78,2.78,0,0,1-.66,1,2.62,2.62,0,0,1-.66.46,7,7,0,0,1-4.51,1.65H7.05a7.07,7.07,0,0,1-7-7V7.05A7.07,7.07,0,0,1,7.05,0Zm-.3,78.84L43.53,40.62,6.75,9.54v69.3ZM49.07,45.39,9.77,83.45h103L75.22,45.39l-11,9.21h0a2.7,2.7,0,0,1-3.45,0L49.07,45.39Zm31.6-4.84,35.46,38.6V9.2L80.67,40.55ZM10.21,5.41,62.39,47.7,112.27,5.41Z"
     id="path1"
     style="fill:#ffffff;fill-opacity:1" />
  <metadata
     id="metadata1">
    <rdf:RDF>
      <cc:Work
         rdf:about="">
        <dc:title>email</dc:title>
      </cc:Work>
    </rdf:RDF>
  </metadata>
</svg>
