<?xml version="1.0" encoding="UTF-8" standalone="no"?>
<svg
   version="1.1"
   id="Layer_1"
   x="0px"
   y="0px"
   width="100%"
   viewBox="0 0 671 634"
   enable-background="new 0 0 671 634"
   xml:space="preserve"
   sodipodi:docname="tuxlu_logo (copier 1).svg"
   inkscape:version="1.4 (e7c3feb100, 2024-10-09)"
   xmlns:inkscape="http://www.inkscape.org/namespaces/inkscape"
   xmlns:sodipodi="http://sodipodi.sourceforge.net/DTD/sodipodi-0.dtd"
   xmlns="http://www.w3.org/2000/svg"
   xmlns:svg="http://www.w3.org/2000/svg"><defs
   id="defs6" /><sodipodi:namedview
   id="namedview6"
   pagecolor="#ffffff"
   bordercolor="#666666"
   borderopacity="1.0"
   inkscape:showpageshadow="2"
   inkscape:pageopacity="0.0"
   inkscape:pagecheckerboard="0"
   inkscape:deskcolor="#d1d1d1"
   inkscape:zoom="1.3417184"
   inkscape:cx="219.12199"
   inkscape:cy="320.8572"
   inkscape:window-width="3440"
   inkscape:window-height="1384"
   inkscape:window-x="0"
   inkscape:window-y="0"
   inkscape:window-maximized="1"
   inkscape:current-layer="Layer_1" />

<path
   fill="#EEA700"
   opacity="1.000000"
   stroke="none"
   d=" M422.531342,1.000000   C423.000000,66.802101 423.000000,132.604202 423.000000,198.702896   C409.622009,198.702896 396.563934,198.702896 383.178589,198.702896   C383.178589,146.649292 383.178589,94.709335 383.178589,42.385002   C344.132019,42.385002 305.407318,42.385002 266.179382,42.385002   C266.179382,94.289940 266.179382,146.348984 266.179382,198.702972   C252.288391,198.702972 238.896942,198.702972 225.000153,198.702972   C225.000153,197.312469 225.000183,196.031189 225.000183,194.749908   C225.000153,131.918640 224.996933,69.087364 225.019638,6.256100   C225.020172,4.785680 225.312057,3.315367 225.234039,1.422502   C290.687561,1.000000 356.375122,1.000000 422.531342,1.000000  z"
   id="path2" />
<path
   fill="#EEA700"
   opacity="1.000000"
   stroke="none"
   d=" M672.000000,412.531342   C668.240540,413.333344 664.481384,413.953369 660.721558,413.957153   C600.392395,414.017853 540.063171,414.000000 479.733948,414.000000   C477.740936,414.000000 475.747894,414.000000 473.377686,414.000000   C473.377686,348.118408 473.377686,282.396393 473.377686,216.336853   C486.295868,216.336853 499.354462,216.336853 512.915771,216.336853   C512.915771,268.386353 512.915771,320.444092 512.915771,373.000000   C515.189636,373.000000 516.971802,373.000000 518.754028,373.000000   C567.584045,373.000000 616.414062,372.994537 665.244080,373.019775   C667.214417,373.020782 669.184692,373.312012 671.577515,373.234009   C672.000000,386.020905 672.000000,399.041779 672.000000,412.531342  z"
   id="path3" />
<path
   fill="#EEA700"
   opacity="1.000000"
   stroke="none"
   d=" M1.000000,216.468658   C67.135117,216.000000 133.270233,216.000000 199.702423,216.000000   C199.702423,229.376999 199.702423,242.435074 199.702423,255.821014   C173.651123,255.821014 147.709824,255.821014 121.267906,255.821014   C121.267906,308.534332 121.267906,360.926453 121.267906,413.658508   C107.713402,413.658508 94.654411,413.658508 81.091103,413.658508   C81.091103,361.287750 81.091103,308.895630 81.091103,256.000000   C78.816383,256.000000 77.034821,256.000000 75.253258,256.000000   C52.587490,256.000000 29.921703,256.010620 7.255978,255.979752   C5.452119,255.977295 3.648653,255.687958 1.422502,255.765961   C1.000000,242.979111 1.000000,229.958206 1.000000,216.468658  z"
   id="path4" />
<path
   fill="#EEA700"
   opacity="1.000000"
   stroke="none"
   d=" M265.000000,447.016724   C265.000000,495.482269 265.000000,543.451355 265.000000,591.709839   C304.060455,591.709839 342.785248,591.709839 381.837769,591.709839   C381.837769,539.633423 381.837769,487.692322 381.837769,435.375946   C395.549194,435.375946 408.942657,435.375946 422.736969,435.375946   C422.818359,436.661011 422.988220,438.094604 422.988525,439.528259   C423.001740,502.194855 422.972717,564.861511 423.065216,627.527954   C423.070953,631.434875 422.324829,633.107300 417.865570,633.097168   C354.865936,632.954224 291.865936,632.999878 228.865997,632.999817   C227.740891,632.999817 226.615768,632.999756 225.247437,632.999756   C225.247437,566.971802 225.247437,501.364746 225.247437,435.378693   C238.209946,435.378693 251.270218,435.378693 265.000000,435.378693   C265.000000,438.993561 265.000000,442.756897 265.000000,447.016724  z"
   id="path5" />
<path
   fill="#EEA700"
   opacity="1.000000"
   stroke="none"
   d=" M416.712494,393.800903   C410.508606,400.477448 404.560608,406.902466 398.758575,413.169830   C374.248535,388.647186 350.148560,364.534912 325.787842,340.161713   C299.550385,364.972198 273.989288,389.143127 249.771027,412.044250   C239.578964,403.174194 229.841797,394.700012 220.736801,386.776001   C246.957001,360.453613 272.245056,335.067017 298.009583,309.202087   C274.060333,285.644012 250.734756,262.699432 227.674789,240.016129   C236.182861,231.558456 244.719955,223.071899 252.989380,214.851440   C275.524048,237.395721 298.562866,260.444336 321.804260,283.695648   C345.244019,260.243439 367.921570,237.553909 390.240631,215.223022   C399.701782,224.674881 408.949554,233.913574 418.255646,243.210526   C396.360657,265.553467 373.895477,288.478271 351.041901,311.799408   C375.686798,335.965149 400.439911,360.236938 425.888428,385.190613   C422.730530,388.149841 419.849457,390.849609 416.712494,393.800903  z"
   id="path6" />
</svg>
