<?xml version="1.0" encoding="UTF-8" standalone="no"?>
<svg
   id="Layer_1"
   data-name="Layer 1"
   viewBox="0 0 123.91135 114.75793"
   version="1.1"
   sodipodi:docname="loudspeaker.svg"
   inkscape:version="1.4 (e7c3feb100, 2024-10-09)"
   width="123.91135"
   height="114.75793"
   xmlns:inkscape="http://www.inkscape.org/namespaces/inkscape"
   xmlns:sodipodi="http://sodipodi.sourceforge.net/DTD/sodipodi-0.dtd"
   xmlns="http://www.w3.org/2000/svg"
   xmlns:svg="http://www.w3.org/2000/svg"
   xmlns:rdf="http://www.w3.org/1999/02/22-rdf-syntax-ns#"
   xmlns:cc="http://creativecommons.org/ns#"
   xmlns:dc="http://purl.org/dc/elements/1.1/">
  <sodipodi:namedview
     id="namedview1"
     pagecolor="#ffffff"
     bordercolor="#666666"
     borderopacity="1.0"
     inkscape:showpageshadow="2"
     inkscape:pageopacity="0.0"
     inkscape:pagecheckerboard="true"
     inkscape:deskcolor="#d1d1d1"
     inkscape:zoom="10.571177"
     inkscape:cx="61.866337"
     inkscape:cy="57.467584"
     inkscape:window-width="3440"
     inkscape:window-height="1384"
     inkscape:window-x="0"
     inkscape:window-y="0"
     inkscape:window-maximized="1"
     inkscape:current-layer="Layer_1" />
  <defs
     id="defs1">
    <style
       id="style1">.cls-1{fill-rule:evenodd;}</style>
  </defs>
  <title
     id="title1">loudspeake</title>
  <path
     class="cls-1"
     d="m 0.50118869,68.127051 c -0.06,-5.83 2.16000001,-11 7.37000001,-12.69 l 0.13,-0.22 a 2.91,2.91 0 0 1 0.6,-0.8 3.1,3.1 0 0 1 1.05,-0.5 l 0.29,-0.11 c 25.2600003,-9.28 36.6500003,-23.21 43.2000003,-32.67 0,9.29 2.33,21.4 6.43,33.12 4.21,12 10.29,23.71 17.71,31.76 v 0 c -7.73,-2.2 -17.43,-5 -33.21,-2.85 a 15.17,15.17 0 0 0 -1.12,5.06 3.9,3.9 0 0 0 1,3 l 0.24,0.22 c 1,0.91 1.49,1.36 1.71,2.17 a 9.17,9.17 0 0 1 -0.13,3.22 l -0.09,0.67 c -0.37,2.929999 1.05,3.529999 2.46,4.129999 1.41,0.6 2.51,1.08 3.08,2.69 a 0.68,0.68 0 0 1 0,0.4 c -0.58,3 -2.5,4.64 -4.43,6.29 -0.47,0.41 -0.95,0.82 -1.36,1.21 h -0.06 c -3.92,3.14 -6.57,2.3 -8.58,-0.22 -1.58,-2 -2.68,-5 -3.7,-7.81 l -0.44,-1.22 a 122.88,122.88 0 0 1 -4,-15.089999 l -0.34,-1.5 c -0.87,0.24 -1.78,0.51 -2.73,0.79 v 0 c -1.2,0.35 -2.4,0.73 -3.59,1.11 l -0.38,0.14 a 1.21,1.21 0 0 1 -1.33,0 c -6.31,2.1 -11.5800003,-0.9 -15.1000003,-5.9 a 25,25 0 0 1 -3.41,-6.9 25.74,25.74 0 0 1 -1.27000001,-7.5 z m 87.81000031,-51.44 a 3,3 0 0 1 -4.23,-0.6 l -0.07,-0.09 a 3.05,3.05 0 0 1 0.63,-4.19 c 4.86,-3.5900002 9.7,-7.2100002 14.56,-10.7200002 a 3.09,3.09 0 0 1 2.220001,-0.55999997 3.06,3.06 0 0 1 2,1.20999997 v 0.05 a 3,3 0 0 1 0.52,2.23 3,3 0 0 1 -1.21,2 z m 15.790001,57.7 v 0 a 3,3 0 0 1 -2.11,-0.93 3,3 0 0 1 -0.85,-2.14 v -0.07 a 3,3 0 0 1 3.07,-3 c 5.37,0 10.83,0.2 16.2,0.3 a 3.07,3.07 0 0 1 3,3.1 3.09,3.09 0 0 1 -0.93,2.15 3,3 0 0 1 -2.16,0.86 l -16.19,-0.31 z m 0.47,-15.71 a 3,3 0 0 1 -3.25,-2.78 v -0.07 a 3.07,3.07 0 0 1 2.77,-3.23 c 5,-0.4 10.09,-0.83 15.1,-1.15 a 3.06,3.06 0 0 1 3.24,2.81 v 0 a 3,3 0 0 1 -0.73,2.21 3.08,3.08 0 0 1 -2.08,1.06 c -4.85,0.48 -10.18,0.88 -15.05,1.14 z m -2.16,-14.59 a 3.06,3.06 0 0 1 -3.780001,-2.11 v 0 a 3,3 0 0 1 0.27,-2.3 3.1,3.1 0 0 1 1.830001,-1.46 c 5.21,-1.37 10.4,-3.05 15.61,-4.45 a 3,3 0 0 1 2.3,0.27 3.08,3.08 0 0 1 1.45,1.8 v 0 a 3.07,3.07 0 0 1 -2.1,3.78 l -15.59,4.45 z m -6.300001,-14.32 a 3.05,3.05 0 0 1 -4.09,-1.37 3,3 0 0 1 -0.17,-2.33 3.09,3.09 0 0 1 1.53,-1.77 l 15.000001,-7.49 a 3,3 0 0 1 4.09,1.37 3,3 0 0 1 0.16,2.33 3.07,3.07 0 0 1 -1.53,1.76 l -15.000001,7.5 z m -36.86,-17.24 c 0.13,-0.15 0.27,-0.29 0.4,-0.42 a 4.46,4.46 0 0 1 1.48,-1.11 v 0 a 3.58,3.58 0 0 1 2,-0.08 c 2.25,0.36 4.66,2 7.11,4.51 6,6.19 12.32,18 16.82,30.41 4.5,12.41 7.2,25.36 5.85,33.77 -0.51,3.13 -1.57,5.66 -3.31,7.33 l -0.09,0.07 a 5.64,5.64 0 0 1 -2.47,1 2.43,2.43 0 0 0 -0.25,-0.2 c -5.99,-4.28 -11.29,-11.38 -15.75,-19.73 1.14,0.22 2.6,-0.63 4,-2.08 7,-7.38 3.56,-20.28 -5.17,-23.27 -3.56,-1.2 -7.1,-1.2 -8.5,-0.51 l -0.15,0.08 c -3.2,-12.35 -4.11,-23.77 -1.97,-29.77 z"
     id="path1"
     style="fill:#ffffff;fill-opacity:0;stroke:#ffffff;stroke-opacity:1;stroke-width:5.5;stroke-dasharray:none" />
  <metadata
     id="metadata1">
    <rdf:RDF>
      <cc:Work
         rdf:about="">
        <dc:title>loudspeake</dc:title>
      </cc:Work>
    </rdf:RDF>
  </metadata>
</svg>
