<?xml version="1.0" encoding="UTF-8" standalone="no"?>
<!-- Uploaded to: SVG Repo, www.svgrepo.com, Generator: SVG Repo Mixer Tools -->

<svg
   fill="#000000"
   height="800px"
   width="800px"
   version="1.1"
   id="Capa_1"
   viewBox="0 0 490.4 490.4"
   xml:space="preserve"
   sodipodi:docname="loupe.svg"
   inkscape:version="1.4 (e7c3feb100, 2024-10-09)"
   xmlns:inkscape="http://www.inkscape.org/namespaces/inkscape"
   xmlns:sodipodi="http://sodipodi.sourceforge.net/DTD/sodipodi-0.dtd"
   xmlns="http://www.w3.org/2000/svg"
   xmlns:svg="http://www.w3.org/2000/svg"><defs
   id="defs1" /><sodipodi:namedview
   id="namedview1"
   pagecolor="#ffffff"
   bordercolor="#666666"
   borderopacity="1.0"
   inkscape:showpageshadow="2"
   inkscape:pageopacity="0.0"
   inkscape:pagecheckerboard="0"
   inkscape:deskcolor="#d1d1d1"
   inkscape:zoom="1.50375"
   inkscape:cx="400.3325"
   inkscape:cy="400"
   inkscape:window-width="3440"
   inkscape:window-height="1384"
   inkscape:window-x="0"
   inkscape:window-y="0"
   inkscape:window-maximized="1"
   inkscape:current-layer="Capa_1" />
<g
   id="g1"
   style="fill:#d67202;fill-opacity:1"
   transform="matrix(-1,0,0,1,490.4,0)">
	<path
   d="m 484.1,454.796 -110.5,-110.6 c 29.8,-36.3 47.6,-82.8 47.6,-133.4 0,-116.3 -94.3,-210.6 -210.6,-210.6 -116.3,0 -210.6,94.3 -210.6,210.6 0,116.3 94.3,210.6 210.6,210.6 50.8,0 97.4,-18 133.8,-48 l 110.5,110.5 c 12.9,11.8 25,4.2 29.2,0 8.4,-8.3 8.4,-20.8 0,-29.1 z m -443,-244 c 0,-93.6 75.9,-169.5 169.5,-169.5 93.6,0 169.6,75.9 169.6,169.5 0,93.6 -75.9,169.5 -169.5,169.5 -93.6,0 -169.6,-75.9 -169.6,-169.5 z"
   id="path1"
   style="fill:#d67202;fill-opacity:1" />
</g>
</svg>
